<svg version="1.1" baseProfile="basic"
   xmlns="http://www.w3.org/2000/svg" xmlns:xlink="http://www.w3.org/1999/xlink" x="0px" y="0px" width="64px" height="64px"
   viewBox="0 0 64 64" xml:space="preserve">
  <path transform="matrix(0.064,0,0,0.064,0,6)" stroke="none" style="fill:#FFFFFF" d="M 640 597 C 464 718 288 781 196 764 C 172 759 154 749 143 733 C 107 680 161 575 271 465 C 272 479 274 493 277 507 C 265 521 253 535 243 549 C 192 618 186 661 198 678 C 203 686 213 691 227 694 C 291 706 437 665 608 548 C 819 403 908 255 878 212 C 873 205 863 199 849 197 C 822 192 779 196 725 213 C 713 204 701 196 688 189 C 772 157 845 143 894 152 C 918 157 936 167 947 183 C 1000 260 862 446 640 597 z M 649 611 C 605 641 561 668 517 691 C 650 711 777 622 802 488 C 756 531 704 573 649 611 z M 402 642 C 461 618 528 583 599 534 C 688 474 752 414 795 364 C 767 278 695 210 601 192 C 464 166 332 256 306 394 C 288 491 328 586 402 642 z M 113 163 C 50 163 0 214 0 276 C 0 339 50 390 113 390 C 175 390 226 339 226 276 C 226 214 175 163 113 163 z M 326 0 C 294 0 268 25 268 58 C 268 90 294 116 326 116 C 358 116 384 90 384 58 C 384 25 358 0 326 0 z M 537 34 C 513 34 495 53 495 76 C 495 99 513 118 537 118 C 560 118 579 99 579 76 C 579 53 560 34 537 34 z"/>
</svg>